SplineFontDB: 3.0
FontName: Tnua-Libre
FullName: Tnua-Libre
FamilyName: Tnua-Libre
Weight: Regular
Copyright: Copyright (C) 1999, 2000, 2004 Elad M. Mizrahi \n<elamizrahi@gmail.com>\n\nThis font is free software; you can redistribute it and/or modify\nit under the terms of the GNU General Public License as published by\nthe Free Software Foundation; either version 2 of the License, or\n(at your option) any later version.\n\nThis font is distributed in the hope that it will be useful,\nbut WITHOUT ANY WARRANTY; without even the implied warranty of\nMERCHANTABILITY or FITNESS FOR A PARTICULAR PURPOSE.  See the\nGNU General Public License for more details.\n\nYou should have received a copy of the GNU General Public License\nalong with this font; if not, write to the Free Software\nFoundation, Inc., 675 Mass Ave, Cambridge, MA 02139, USA.\n\nAs a special exception, if you create a document which uses\nthis font, and embed this font or unaltered portions of this font into\nthe document, this font does not by itself cause the resulting\ndocument to be covered by the GNU General Public License.  This\nexception does not however invalidate any other reasons why the\ndocument might be covered by the GNU General Public License.  If you\nmodify this font, you may extend this exception to your version of the\nfont, but you are not obligated to do so. If you do not wish to do so,\ndelete this exception statement from your version.
Version: 
ItalicAngle: 0
UnderlinePosition: 0
UnderlineWidth: 0
Ascent: 819
Descent: 205
LayerCount: 2
Layer: 0 0 "Back"  1
Layer: 1 0 "Fore"  0
XUID: [1021 309 482425844 5307937]
FSType: 8
OS2Version: 0
OS2_WeightWidthSlopeOnly: 0
OS2_UseTypoMetrics: 0
CreationTime: 1305981469
ModificationTime: 1305985170
PfmFamily: 33
TTFWeight: 400
TTFWidth: 5
LineGap: 92
VLineGap: 92
OS2TypoAscent: 0
OS2TypoAOffset: 1
OS2TypoDescent: 0
OS2TypoDOffset: 1
OS2TypoLinegap: 92
OS2WinAscent: 0
OS2WinAOffset: 1
OS2WinDescent: 0
OS2WinDOffset: 1
HheadAscent: 0

StartChar: .notdef
Encoding: 0 0 0
Width: 1040
VWidth: 90
Flags: W
LayerCount: 2
Fore
SplineSet
20 0 m 0
 1020 0 l 0
 1020 1024 l 0
 20 1024 l 0
 20 0 l 0
EndSplineSet
Validated: 9
EndChar

StartChar: glyph 1
Encoding: 224 1488 1
Width: 718
VWidth: 90
Flags: W
VStem: 23.4951 116.609<-81.1443 253.068>
LayerCount: 2
Fore
SplineSet
140.104 835.389 m 0
 42.9287 768.496 l 0
 74.5127 718.012 l 0
 199.625 521.121 l 0
 176.681 508.033 151.469 489.384 127.962 461.803 c 0
 58.8838 380.773 5.59473 232.607 23.4951 -29.1621 c 0
 27.1367 -88.4814 l 0
 143.75 -80.9082 l 0
 140.104 -20.3262 l 0
 123.576 221.511 172.929 331.187 215.417 381.026 c 0
 233.653 402.421 250.25 412.504 264.002 418.891 c 0
 353.894 277.532 l 0
 358.751 248.504 l 0
 372.109 251.028 l 0
 567.677 -58.1904 l 0
 600.473 -108.676 l 0
 697.645 -41.7832 l 0
 664.853 8.70117 l 0
 493.58 278.795 l 0
 542.071 299.466 581.223 331.117 610.186 367.143 c 0
 653.12 420.529 674.584 483.173 685.505 541.315 c 0
 707.344 657.601 687.935 762.187 687.935 762.187 c 0
 677 822.768 l 0
 562.815 800.05 l 0
 572.54 740.73 l 0
 572.54 740.73 586.831 653.07 570.106 564.033 c 0
 561.75 519.516 546.369 476.539 520.307 444.133 c 0
 498.635 417.184 470.256 395.68 426.775 383.551 c 0
 344.174 512.286 l 0
 342.962 552.675 l 0
 319.883 551.414 l 0
 171.688 784.906 l 0
 140.104 835.389 l 0
EndSplineSet
Validated: 524841
EndChar

StartChar: glyph 2
Encoding: 225 1489 2
Width: 900
VWidth: 90
Flags: W
HStem: 691.509 123.687<83.165 375.829>
VStem: 561.751 116.61<406.27 580.901>
LayerCount: 2
Fore
SplineSet
183.983 815.195 m 0
 151.049 814.789 115.83 814.115 78.3047 812.671 c 0
 20 810.146 l 0
 24.8604 688.983 l 0
 83.165 691.509 l 0
 231.214 697.207 337.625 696.822 407.482 683.936 c 0
 477.349 671.049 504.272 652.252 525.314 615.781 c 0
 546.35 579.312 559.541 511.612 562.966 406.27 c 0
 565.981 313.688 563.661 187.643 561.751 35.207 c 0
 79.5205 33.9463 l 0
 21.2188 33.9463 l 0
 22.4229 -87.2168 l 0
 80.7314 -87.2168 l 0
 622.486 -85.9531 l 0
 675.936 -85.9531 l 0
 675.936 -84.6924 l 0
 821.695 -84.6924 l 0
 880.004 -84.6924 l 0
 878.781 36.4707 l 0
 820.48 36.4707 l 0
 678.361 36.4707 l 0
 680.31 186.917 682.764 313.16 679.573 411.32 c 0
 675.924 523.669 665.959 608.582 626.128 677.628 c 0
 586.297 746.673 514.952 786.338 426.919 802.576 c 0
 382.894 810.696 333.773 814.092 276.295 815.198 c 0
 247.555 815.751 216.91 815.605 183.983 815.195 c 0
EndSplineSet
Validated: 524841
EndChar

StartChar: glyph 3
Encoding: 226 1490 3
Width: 623
VWidth: 90
Flags: W
HStem: 690.248 121.162<253.22 309.928>
VStem: 381.973 117.825<325.642 567.483>
LayerCount: 2
Fore
SplineSet
78.3018 812.671 m 0
 20 811.41 l 0
 21.2119 690.248 l 0
 79.5195 691.508 l 0
 155.073 692.556 212.925 692.471 253.22 686.46 c 0
 293.512 680.448 313.02 670.41 327.317 654.906 c 0
 354.732 625.168 374.839 532.308 381.973 338.114 c 0
 370.467 333.011 358.795 325.538 346.751 316.658 c 0
 295.347 278.777 222.104 198.972 88.0215 11.2256 c 0
 52.793 -36.7344 l 0
 146.327 -108.676 l 0
 181.553 -60.7139 l 0
 296.703 100.519 361.555 167.691 396.55 198.02 c 0
 409.498 131.104 432.892 54.7754 473.081 -46.8311 c 0
 494.938 -103.626 l 0
 603.049 -56.9287 l 0
 581.182 -1.39551 l 0
 535.854 113.213 514.98 186.333 505.877 249.767 c 0
 502.434 273.716 500.475 296.283 499.798 319.183 c 0
 493.429 535.541 484.945 659.41 411.127 739.469 c 0
 374.222 779.498 324.458 798.271 270.22 806.36 c 0
 215.984 814.451 154.523 813.728 78.3018 812.671 c 0
EndSplineSet
Validated: 524841
EndChar

StartChar: glyph 4
Encoding: 227 1491 4
Width: 898
VWidth: 90
Flags: W
VStem: 553.242 116.617<-78.6786 -24.1152>
LayerCount: 2
Fore
SplineSet
20 812.671 m 0
 20 691.508 l 0
 78.3008 691.508 l 0
 547.174 691.508 l 0
 553.242 -25.375 l 0
 554.465 -85.957 l 0
 671.078 -84.6963 l 0
 669.859 -24.1152 l 0
 663.789 691.506 l 0
 819.266 691.506 l 0
 877.574 691.506 l 0
 877.574 812.67 l 0
 819.266 812.67 l 0
 78.3008 812.67 l 0
 20 812.671 l 0
EndSplineSet
Validated: 524809
EndChar

StartChar: glyph 5
Encoding: 228 1492 5
Width: 825
VWidth: 90
Flags: W
HStem: 690.248 121.162<78.3047 365.871>
VStem: 688.082 116.609<449.182 584.803>
LayerCount: 2
Fore
SplineSet
408.704 818.981 m 0
 320.346 820.143 213.116 815.528 78.3047 812.671 c 0
 20 811.41 l 0
 22.4297 690.248 l 0
 80.7354 691.508 l 0
 261.729 695.346 392.331 700.197 482.799 694.032 c 0
 573.262 687.866 614.938 671.426 638.275 643.548 c 0
 661.623 615.671 678.329 558.151 684.437 449.182 c 0
 690.544 340.212 687.37 186.198 688.082 -24.1133 c 0
 688.082 -84.6943 l 0
 804.691 -84.6943 l 0
 804.691 -24.1133 l 0
 803.979 184.78 807.632 339.188 801.053 456.755 c 0
 794.461 574.32 778.729 659.767 725.734 723.061 c 0
 672.743 786.355 593.188 808.252 491.299 815.196 c 0
 465.826 816.932 438.156 818.596 408.704 818.981 c 0
113.531 425.2 m 0
 113.531 364.619 l 0
 115.965 -25.375 l 0
 115.965 -85.957 l 0
 232.574 -84.6963 l 0
 232.574 -24.1152 l 0
 230.141 364.617 l 0
 228.93 425.198 l 0
 113.531 425.2 l 0
EndSplineSet
Validated: 524841
EndChar

StartChar: glyph 6
Encoding: 229 1493 6
Width: 165
VWidth: 90
Flags: W
VStem: 21.2227 116.605<-8.49098 752.251> 28.5137 116.607<-25.2148 737.89>
LayerCount: 2
Fore
SplineSet
136.617 812.833 m 0x80
 20 811.568 l 0
 21.2227 750.986 l 0x80
 27.293 -25.2148 l 0
 28.5137 -85.7969 l 0
 145.121 -84.5332 l 0x40
 143.906 -23.9512 l 0
 137.828 752.251 l 0
 136.617 812.833 l 0x80
EndSplineSet
Validated: 524809
EndChar

StartChar: glyph 7
Encoding: 230 1494 7
Width: 515
VWidth: 90
Flags: HW
LayerCount: 2
Fore
SplineSet
120.82 825.453 m 0
 63.7305 810.309 l 0
 61.4531 809.707 59.9434 809.335 54.0137 806.523 c 0
 51.0449 805.118 46.8301 804.226 40.6523 798.951 c 0
 37.5625 796.313 29.7344 786.354 29.7158 786.331 c 0
 29.7158 786.301 20.0029 761.11 20 761.088 c 0
 20 761.058 23.6387 729.558 23.6445 729.535 c 0
 23.6445 729.495 35.7695 709.363 35.792 709.342 c 0
 35.792 709.302 43.7832 702.438 46.7246 700.506 c 0
 49.6602 698.576 52.0234 696.389 54.0137 695.458 c 0
 61.9531 691.733 64.7695 692.207 67.373 691.674 c 0
 77.7842 689.531 79.1484 689.369 84.376 689.148 c 0
 94.8438 688.714 109.542 689.119 126.896 689.148 c 0
 161.591 689.219 208.988 689.617 256.863 690.413 c 0
 258.652 690.453 259.932 690.383 261.725 690.413 c 0
 254.395 678.881 242.918 670.006 237.431 657.598 c 0
 205.435 585.27 199.558 502.889 200.99 420.319 c 0
 203.841 255.181 235.054 77.125 217.99 -12.5869 c 0
 207.061 -71.9062 l 0
 321.24 -95.8877 l 0
 332.173 -36.5674 l 0
 358.305 100.854 320.16 274.781 317.596 422.844 c 0
 316.32 496.874 323.408 562.584 343.107 607.112 c 0
 362.804 651.642 389.738 678.406 450.001 692.937 c 0
 452.389 693.514 454.412 693.34 463.363 697.985 c 0
 465.599 699.146 471.84 703.015 471.869 703.033 c 0
 471.869 703.033 485.213 718.16 485.224 718.179 c 0
 485.224 718.179 494.947 754.763 494.947 754.78 c 0
 494.947 754.78 482.808 790.103 482.797 790.119 c 0
 482.797 790.119 472.042 801.511 468.224 804.003 c 0
 464.397 806.495 461.996 808.077 459.718 809.051 c 0
 455.162 810.998 452.035 811.079 450.001 811.575 c 0
 445.932 812.566 444.411 812.635 442.711 812.84 c 0
 435.92 813.661 433.26 813.99 428.134 814.104 c 0
 417.889 814.316 403.148 814.28 385.621 814.104 c 0
 350.564 813.784 302.225 812.372 254.434 811.579 c 0
 206.643 810.786 159.025 810.403 125.674 810.315 c 0
 125.117 810.315 125.008 810.315 124.462 810.315 c 0
 120.82 825.453 l 0
423.28 811.57 m 0
 415.254 809.634 410.229 803.99 402.625 801.474 c 0
 402.625 801.474 408.969 805.399 411.129 806.521 c 0
 419.783 811.017 421.598 811.165 423.28 811.57 c 0
EndSplineSet
Validated: 524841
EndChar

StartChar: glyph 8
Encoding: 231 1495 8
Width: 738
VWidth: 90
Flags: W
HStem: 692.935 119.9<139.039 227.226 371.68 500.937>
VStem: 24.8564 119.04<-68.9087 35.3701 460.972 692.935> 33.3594 115.396<35.3701 98.4756 362.258 648.231> 589.687 116.614<158.404 567.77> 601.838 116.609<-23.9502 256.62>
LayerCount: 2
Fore
SplineSet
414.776 816.619 m 0x90
 326.049 826.002 217.523 820.294 74.6602 812.835 c 0
 20 749.729 l 0
 20 749.729 28.6162 555.437 33.3594 362.258 c 0
 35.7383 265.67 36.7695 169.672 35.793 98.4756 c 0
 35.4023 71.5146 34.415 53.042 33.3594 35.3701 c 0xb0
 22.4297 35.3701 l 0
 24.8564 -85.793 l 0
 83.1621 -84.5293 l 0
 114.582 -83.8643 130.082 -61.4951 135.395 -51.7158 c 0
 140.715 -41.9346 142.5 -36.0195 143.896 -30.2588 c 0xc0
 146.688 -18.7383 147.651 -8.39746 148.756 3.81836 c 0
 150.961 28.249 151.889 58.749 152.398 95.9531 c 0
 153.422 170.361 152.398 268.653 149.969 366.047 c 0
 145.944 529.838 141.055 645.065 139.039 692.935 c 0
 245.391 698.017 343.661 703.086 403.844 696.72 c 0
 477.268 688.955 511.317 671.608 536.238 638.662 c 0
 561.163 605.715 580.084 542.425 589.687 434.198 c 0xb0
 599.291 325.974 599.936 176.914 600.619 -23.9502 c 0
 601.838 -84.5312 l 0
 718.447 -84.5312 l 0x88
 717.229 -23.9502 l 0
 716.549 177.107 716.711 328.215 706.301 445.558 c 0
 695.889 562.899 676.03 650.025 627.344 714.39 c 0
 578.655 778.752 503.495 807.238 414.776 816.619 c 0x90
EndSplineSet
Validated: 524841
EndChar

StartChar: glyph 9
Encoding: 232 1496 9
Width: 802
VWidth: 90
Flags: W
HStem: -85.7949 121.162<273.809 546.459>
VStem: 33.0645 116.609<470.283 756.038 809.046 809.282> 664.7 116.614<194.94 535.985>
LayerCount: 2
Fore
SplineSet
36.709 816.619 m 0
 33.0645 756.038 l 0
 26.5566 648.085 15.2852 509.44 22.1318 376.14 c 0
 28.9805 242.839 52.1152 111.502 129.025 17.6973 c 0
 194.648 -62.3438 295.551 -83.4746 385.324 -85.7949 c 0
 475.1 -88.1182 554.035 -72.5547 605.188 -49.1943 c 0
 653.252 -27.2393 699.232 17.3467 729.084 85.8525 c 0
 758.93 154.358 777.109 246.489 781.314 377.401 c 0
 785.785 516.526 746.053 636.078 673.207 716.912 c 0
 600.359 797.744 491.086 835.138 379.254 805.26 c 0
 322.162 790.114 l 0
 351.312 672.737 l 0
 408.402 687.883 l 0
 482.817 707.765 541.123 687.087 588.178 634.874 c 0
 635.234 582.66 668.338 494.408 664.7 381.188 c 0
 660.805 259.755 643.637 181.521 623.406 135.074 c 0
 603.168 88.6299 583.385 72.998 559.026 61.8721 c 0
 537.739 52.1514 460.182 33.4951 387.754 35.3672 c 0
 315.328 37.2402 248.918 57.8662 217.695 95.9492 c 0
 170.488 153.53 144.997 260.67 138.741 382.45 c 0
 132.481 504.231 143.053 638.662 149.674 748.465 c 0
 153.315 809.046 l 0
 36.709 816.619 l 0
EndSplineSet
Validated: 524841
EndChar

StartChar: glyph 10
Encoding: 233 1497 10
Width: 164
VWidth: 90
Flags: W
VStem: 21.2188 116.61<351.666 748.467>
LayerCount: 2
Fore
SplineSet
136.607 809.046 m 0
 20 806.521 l 0
 21.2188 745.94 l 0
 27.291 342.062 l 0
 27.291 281.48 l 0
 143.9 282.745 l 0
 143.9 343.327 l 0
 137.829 748.467 l 0
 136.607 809.046 l 0
EndSplineSet
Validated: 524809
EndChar

StartChar: glyph 11
Encoding: 235 1499 11
Width: 745
VWidth: 90
Flags: W
HStem: -82.0098 121.163<78.3018 364.265> 690.404 121.164<100.169 389.423>
VStem: 607.912 116.611<150.903 533.167>
LayerCount: 2
Fore
SplineSet
322.464 815.356 m 0
 251.303 818.483 174.971 815.038 96.5273 812.833 c 0
 38.2227 811.568 l 0
 41.8643 690.404 l 0
 100.169 691.669 l 0
 258.905 696.122 393.755 699.615 475.511 663.901 c 0
 516.387 646.046 545.003 621.675 567.826 578.078 c 0
 590.646 534.48 606.205 469.621 607.912 373.614 c 0
 609.666 274.679 602.291 202.797 587.261 155.269 c 0
 572.23 107.739 554.143 84.3311 521.669 65.6572 c 0
 456.722 28.3125 314.288 24.542 84.3799 36.6289 c 0
 26.0752 39.1533 l 0
 20 -82.0098 l 0
 78.3018 -84.5342 l 0
 309.859 -96.708 463.414 -105.986 577.544 -40.3604 c 0
 634.609 -7.54785 677.09 48.0762 699.01 117.404 c 0
 720.938 186.732 726.4 269.212 724.523 374.877 c 0
 722.592 483.472 704.926 569.144 669.859 636.136 c 0
 634.793 703.128 581.242 749.674 520.454 776.23 c 0
 459.662 802.787 393.617 812.23 322.464 815.356 c 0
EndSplineSet
Validated: 524841
EndChar

StartChar: glyph 12
Encoding: 236 1500 12
Width: 747
VWidth: 90
Flags: W
VStem: 610.343 116.608<505.684 692.342>
LayerCount: 2
Fore
SplineSet
23.6484 1162.44 m 0
 22.4297 1101.86 l 0
 20 752.251 l 0
 78.3018 691.67 l 0
 78.3018 691.67 219.294 692.48 362.539 692.934 c 0
 434.167 693.182 506.918 693.11 561.752 692.934 c 0
 581.193 692.894 594.863 693.039 609.128 692.934 c 0
 609.784 680.279 610.779 669.2 610.343 652.545 c 0
 609.021 601.551 600.771 538.177 586.049 499.829 c 0
 574.66 470.167 532.091 425.117 484.013 379.928 c 0
 435.935 334.737 381.8 290.321 356.471 220.901 c 0
 312.314 99.8838 350.396 -37.832 350.396 -37.832 c 0
 363.758 -97.1523 l 0
 477.94 -69.3867 l 0
 464.578 -10.0664 l 0
 464.578 -10.0664 442.927 115.326 465.79 177.989 c 0
 473.973 200.408 514.569 244.826 562.969 290.317 c 0
 611.366 335.809 666.851 383.287 694.155 454.393 c 0
 718.127 516.814 725.39 588.347 726.951 648.76 c 0
 727.73 678.966 726.951 706.136 724.521 728.272 c 0
 723.316 739.341 721.419 749.039 718.446 759.825 c 0
 716.961 765.219 715.661 770.494 711.155 778.758 c 0
 706.664 787.021 699.129 803.337 672.288 810.311 c 0
 660.261 813.437 661.427 812.668 658.929 812.834 c 0
 656.425 813.013 654.444 812.765 651.639 812.834 c 0
 646.03 813.048 638.394 813.968 629.774 814.099 c 0
 612.54 814.347 589.397 814.028 561.749 814.099 c 0
 506.458 814.276 434.285 814.347 362.536 814.099 c 0
 248.973 813.734 178.564 813.091 136.607 812.834 c 0
 139.037 1100.6 l 0
 140.259 1161.18 l 0
 23.6484 1162.44 l 0
EndSplineSet
Validated: 524841
EndChar

StartChar: glyph 13
Encoding: 238 1502 13
Width: 874
VWidth: 90
Flags: W
VStem: 26.0752 116.61<-27.8994 135.814>
LayerCount: 2
Fore
SplineSet
108.671 871.99 m 0
 20 793.738 l 0
 57.6533 747.041 l 0
 186.417 591.8 l 0
 147.584 523.988 119.486 449.432 97.7422 375.979 c 0
 37.96 174.018 29.7168 -21.5898 29.7168 -21.5898 c 0
 26.0752 -82.1709 l 0
 142.686 -87.2197 l 0
 146.33 -27.8994 l 0
 146.33 -27.8994 155.034 156.674 209.492 340.639 c 0
 236.724 432.62 275.417 523.466 326.105 589.275 c 0
 376.787 655.087 434.473 694.724 513.163 700.343 c 0
 590.675 705.878 630.812 677.259 666.218 618.305 c 0
 701.62 559.351 722.751 468.351 731.812 373.453 c 0
 746.095 223.789 733.677 95.3438 726.952 36.4688 c 0
 446.356 36.4688 l 0
 388.048 36.4688 l 0
 388.048 -84.6953 l 0
 446.356 -84.6953 l 0
 779.183 -84.6953 l 0
 837.489 -32.9473 l 0
 837.489 -32.9473 867.247 174.854 847.206 384.812 c 0
 837.185 489.792 816.122 596.905 764.608 682.673 c 0
 713.091 768.44 621.985 829.798 505.88 821.506 c 0
 403.408 814.188 319.689 762.264 256.861 691.508 c 0
 146.33 826.554 l 0
 108.671 871.99 l 0
EndSplineSet
Validated: 524841
EndChar

StartChar: glyph 14
Encoding: 240 1504 14
Width: 584
VWidth: 90
Flags: W
HStem: 691.67 121.163<242.288 331.311>
VStem: 445.142 119.04<36.6299 260.369>
LayerCount: 2
Fore
SplineSet
242.288 812.833 m 0
 183.987 810.309 l 0
 190.062 689.145 l 0
 248.367 691.67 l 0
 298.089 694.059 323.63 681.799 346.751 657.592 c 0
 369.88 633.386 390.596 590.585 405.062 527.594 c 0
 431.103 414.154 437.257 238.757 445.142 36.6299 c 0
 78.3047 36.6299 l 0
 20 36.6299 l 0
 20 -84.5332 l 0
 78.3047 -84.5332 l 0
 505.881 -84.5332 l 0
 564.182 -21.4277 l 0
 554.727 208.606 552.386 405.717 518.023 555.36 c 0
 500.847 630.182 475.256 695.368 429.353 743.416 c 0
 383.45 791.464 316.526 816.403 242.288 812.833 c 0
EndSplineSet
Validated: 524841
EndChar

StartChar: glyph 15
Encoding: 241 1505 15
Width: 898
VWidth: 90
Flags: W
HStem: -87.0576 121.163<326.217 474.299 519.245 629.091> 692.932 119.901<196.13 656.44> 699.239 121.166<194.818 483.403>
VStem: 73.4512 116.606<213.873 697.979>
LayerCount: 2
Fore
SplineSet
22.4297 821.667 m 0xb0
 20 700.504 l 0
 78.3086 699.239 l 0
 79.5234 699.239 l 0xb0
 77.8057 673.492 70.6426 583.388 73.4512 451.864 c 0
 75.041 377.377 80.4219 298.809 91.6699 227.208 c 0
 102.917 155.606 117.703 91.5293 154.835 41.6758 c 0
 217.224 -42.0928 306.858 -73.3467 379.553 -83.2734 c 0
 415.9 -88.2373 448.669 -87.9258 474.299 -87.0576 c 0
 499.932 -86.1934 523.967 -84.7393 519.245 -84.5332 c 0
 556.905 -86.1836 681.394 -85.7051 775.544 17.6982 c 0
 829.031 76.4385 852.839 159.372 866.644 247.403 c 0
 880.448 335.437 882.061 428.083 871.504 502.352 c 0
 860.707 578.309 831.814 652.244 786.475 710.602 c 0
 741.139 768.96 674.928 811.744 596.983 812.833 c 0xd0
 80.7373 820.405 l 0
 22.4297 821.667 l 0xb0
196.13 697.979 m 0
 595.766 692.932 l 0xd0
 633.23 692.41 665.796 671.68 695.368 633.611 c 0
 724.943 595.544 748.146 540.679 756.104 484.682 c 0
 764.301 426.998 763.074 343.01 751.242 267.598 c 0
 739.418 192.185 714.107 124.318 691.723 99.7354 c 0
 634.141 36.4912 548.312 35.5674 524.099 36.6299 c 0
 503.906 37.5146 492.472 34.8457 470.65 34.1055 c 0
 448.828 33.3652 422.869 34.1357 395.342 37.8896 c 0
 340.282 45.4082 284.856 65.5088 247.147 116.141 c 0
 234.229 133.487 215.697 183.436 205.85 246.139 c 0
 195.999 308.843 191.573 383.403 190.058 454.389 c 0
 187.312 583.034 194.74 677.389 196.13 697.979 c 0
EndSplineSet
Validated: 524841
EndChar

StartChar: glyph 16
Encoding: 242 1506 16
Width: 795
VWidth: 90
Flags: W
LayerCount: 2
Fore
SplineSet
221.639 822.768 m 0
 107.46 798.788 l 0
 118.392 739.468 l 0
 269.016 -29.1621 l 0
 205.479 -44.8477 139.133 -62.1494 73.4443 -91.0049 c 0
 20 -113.724 l 0
 64.9463 -226.053 l 0
 119.606 -202.071 l 0
 246.302 -146.414 425.138 -150.426 572.684 -39.2588 c 0
 646.459 16.3242 707.483 103.398 741.526 230.835 c 0
 775.569 358.271 784.851 526.046 764.608 757.138 c 0
 759.748 817.72 l 0
 643.138 806.36 l 0
 649.21 745.778 l 0
 668.665 523.672 656.982 368.779 628.561 262.388 c 0
 600.14 155.994 557.794 99.2168 504.66 59.1865 c 0
 469.555 32.7373 427.754 15.5684 381.979 1.12891 c 0
 232.569 763.448 l 0
 221.639 822.768 l 0
EndSplineSet
Validated: 524841
EndChar

StartChar: glyph 17
Encoding: 244 1508 17
Width: 746
VWidth: 90
Flags: HW
LayerCount: 2
Fore
SplineSet
94.1025 812.833 m 0
 37.0127 757.3 l 0
 37.0127 757.3 30.6572 690.106 30.9404 612.156 c 0
 31.082 573.181 31.8975 531.714 37.0127 492.255 c 0
 42.1279 452.796 49.1025 415.406 69.8086 381.188 c 0
 108.79 316.778 175.606 297.812 226.505 287.792 c 0
 277.403 277.771 321.251 278.957 321.251 278.957 c 0
 379.556 281.48 l 0
 374.698 402.645 l 0
 316.394 400.119 l 0
 316.394 400.119 285.175 399.182 248.368 406.431 c 0
 211.562 413.677 178.288 432.155 169.414 446.818 c 0
 166.194 452.138 157.682 477.341 153.622 508.663 c 0
 149.562 539.983 147.678 577.787 147.55 613.418 c 0
 147.409 655.487 148.45 666.818 149.977 691.67 c 0
 360.12 691.67 l 0
 444.759 691.67 501.282 654.692 543.537 595.749 c 0
 585.794 536.806 609.596 453.383 609.132 368.567 c 0
 608.664 283.752 584.554 199.477 539.895 138.861 c 0
 495.451 78.5459 433.679 39.4268 341.897 36.6309 c 0
 341.44 36.6309 341.14 36.6309 340.679 36.6309 c 0
 78.3086 36.6309 l 0
 20 36.6309 l 0
 20 -84.5332 l 0
 78.3086 -84.5332 l 0
 341.894 -84.5332 l 0
 343.112 -84.5332 l 0
 468.45 -81.2168 568.839 -20.3525 632.21 65.6582 c 0
 695.58 151.67 725.149 259.5 725.741 367.306 c 0
 726.332 475.11 697.862 584.149 637.066 668.951 c 0
 576.275 753.753 479.766 812.833 360.119 812.833 c 0
 94.1025 812.833 l 0
EndSplineSet
Validated: 524841
EndChar

StartChar: glyph 18
Encoding: 246 1510 18
Width: 751
VWidth: 90
Flags: W
LayerCount: 2
Fore
SplineSet
159.689 836.651 m 0
 64.9443 765.973 l 0
 98.9541 716.75 l 0
 386.837 293.94 l 0
 394.127 248.504 l 0
 415.991 252.291 l 0
 562.967 36.4688 l 0
 78.3057 36.4688 l 0
 20 36.4688 l 0
 20 -84.6953 l 0
 78.3057 -84.6953 l 0
 675.935 -84.6953 l 0
 723.308 11.2256 l 0
 537.461 282.582 l 0
 582.17 303.184 618.25 333.175 645.566 367.143 c 0
 688.5 420.529 709.96 483.173 720.878 541.315 c 0
 742.717 657.601 723.308 762.187 723.308 762.187 c 0
 712.376 822.768 l 0
 598.193 800.05 l 0
 607.913 740.73 l 0
 607.913 740.73 622.204 653.07 605.483 564.033 c 0
 597.123 519.516 581.742 476.539 555.681 444.133 c 0
 535.004 418.42 508.367 398.473 468.222 386.074 c 0
 193.705 787.429 l 0
 159.689 836.651 l 0
EndSplineSet
Validated: 524837
EndChar

StartChar: glyph 19
Encoding: 247 1511 19
Width: 841
VWidth: 90
Flags: W
HStem: 691.508 121.163<367.4 638.784>
LayerCount: 2
Fore
SplineSet
22.4287 812.671 m 0
 22.4287 691.508 l 0
 80.7344 691.508 l 0
 367.401 691.508 l 0
 511.775 691.508 594.618 687.603 630.989 672.575 c 0
 649.175 665.062 657.079 657.262 667.431 641.022 c 0
 677.783 624.785 689.312 597.958 700.228 556.461 c 0
 715.993 496.521 687.187 404.253 624.917 305.3 c 0
 562.648 206.346 471.744 104.17 389.267 18.7988 c 0
 347.967 -24.1133 l 0
 430.565 -109.938 l 0
 471.865 -67.0254 l 0
 557.051 21.1494 651.862 128.066 722.092 239.67 c 0
 792.32 351.271 842.798 470.842 811.979 588.015 c 0
 799.601 635.073 786.33 673.837 764.605 707.916 c 0
 742.88 741.994 711.747 769.605 674.718 784.904 c 0
 600.66 815.501 512.124 812.671 367.4 812.671 c 0
 80.7334 812.671 l 0
 22.4287 812.671 l 0
20 437.821 m 0
 20 377.239 l 0
 20 -342.167 l 0
 20 -402.748 l 0
 136.61 -402.748 l 0
 136.61 -342.167 l 0
 136.61 377.239 l 0
 136.61 437.821 l 0
 20 437.821 l 0
EndSplineSet
Validated: 524841
EndChar

StartChar: glyph 20
Encoding: 248 1512 20
Width: 826
VWidth: 90
Flags: W
HStem: 690.404 121.164<484.014 605.351>
VStem: 689.295 116.61<449.342 584.964>
LayerCount: 2
Fore
SplineSet
492.516 815.356 m 0
 390.627 822.302 258.055 816.646 78.3047 812.833 c 0
 20 811.568 l 0
 22.4297 690.404 l 0
 80.7344 691.669 l 0
 261.73 695.505 393.547 700.358 484.014 694.192 c 0
 574.48 688.027 616.152 671.586 639.494 643.709 c 0
 662.836 615.831 679.547 558.312 685.652 449.342 c 0
 691.758 340.372 688.58 186.359 689.295 -23.9521 c 0
 689.295 -84.5342 l 0
 805.905 -84.5342 l 0
 805.905 -23.9521 l 0
 805.193 184.941 808.852 339.349 802.264 456.915 c 0
 795.676 574.481 779.947 659.928 726.953 723.222 c 0
 673.959 786.516 594.404 808.412 492.516 815.356 c 0
EndSplineSet
Validated: 524841
EndChar

StartChar: glyph 21
Encoding: 249 1513 21
Width: 1006
VWidth: 90
Flags: W
HStem: 254.814 122.428<165.76 263.784>
VStem: 20 119.039<44.041 248.72 701.604 810.425> 33.3613 116.607<88.2002 254.814 638.499 700.776> 869.068 116.611<467.336 752.09>
LayerCount: 2
Fore
SplineSet
24.8574 822.768 m 0xb0
 22.4277 701.604 l 0
 33.3613 701.604 l 0
 34.4121 683.933 35.4219 665.46 35.7891 638.499 c 0
 36.7695 567.303 35.7598 470.043 33.3613 373.453 c 0xb0
 28.6133 180.275 20 -12.7549 20 -12.7549 c 0
 74.6602 -75.8604 l 0
 360.562 -90.7939 583.15 -106.353 747.6 4.91602 c 0
 829.824 60.5488 891.699 148.511 929.803 269.961 c 0
 967.908 391.409 984.982 547.533 985.68 752.09 c 0
 985.68 812.671 l 0
 869.068 812.671 l 0
 869.068 752.09 l 0
 868.396 554.723 850.207 410.311 818.051 307.823 c 0
 785.896 205.338 742.814 145.385 684.436 105.885 c 0
 577.018 33.2061 389.174 32.5332 139.039 44.041 c 0xd0
 140.49 78.4824 143.293 157.635 146.326 254.814 c 0
 175.479 257.34 l 0
 388.281 277.251 495.375 409.599 532.598 529.957 c 0
 569.822 650.314 550.818 762.187 550.818 762.187 c 0
 541.1 821.507 l 0
 425.703 801.312 l 0
 435.422 741.991 l 0
 435.422 741.991 447.951 654.199 420.846 566.558 c 0
 393.74 478.917 339.986 394.805 165.76 378.503 c 0
 149.969 377.242 l 0
 152.248 472.455 153.396 567.001 152.398 639.763 c 0
 151.885 676.968 150.957 708.729 148.756 733.159 c 0
 147.654 745.375 146.689 754.455 143.896 765.975 c 0
 142.502 771.734 140.713 778.912 135.395 788.692 c 0
 130.074 798.473 114.584 820.843 83.1621 821.508 c 0
 24.8574 822.768 l 0xb0
EndSplineSet
Validated: 524837
EndChar

StartChar: glyph 22
Encoding: 250 1514 22
Width: 894
VWidth: 90
Flags: HW
LayerCount: 2
Fore
SplineSet
232.57 818.981 m 0
 232.57 813.933 l 0
 202.877 813.203 179.047 813.366 146.326 812.673 c 0
 88.0215 811.412 l 0
 90.4512 690.249 l 0
 148.756 691.51 l 0
 180.939 692.192 203.451 692.094 232.57 692.77 c 0
 231.486 322.045 231.664 131.805 215.564 69.2832 c 0
 211.281 52.6621 207.066 46.6699 205.846 45.3037 c 0
 204.625 43.9365 205.598 43.1328 198.559 41.5166 c 0
 184.445 38.2773 142.52 41.1982 81.9473 42.7812 c 0
 23.6426 44.042 l 0
 20 -77.1211 l 0
 78.3047 -78.3828 l 0
 134.326 -79.8291 177.242 -87.8623 224.068 -77.1211 c 0
 247.482 -71.751 272.182 -58.9375 290.877 -37.9951 c 0
 309.572 -17.0537 321.219 9.34668 328.531 37.7314 c 0
 356.129 144.835 348.908 324.725 349.182 695.296 c 0
 429.984 696.746 500.039 697.575 552.035 694.03 c 0
 642.502 687.865 684.174 671.425 707.516 643.547 c 0
 730.859 615.67 747.568 558.15 753.674 449.181 c 0
 759.781 340.211 756.602 186.197 757.316 -24.1143 c 0
 757.316 -84.6953 l 0
 873.928 -84.6953 l 0
 873.928 -24.1143 l 0
 873.215 184.779 876.869 339.187 870.285 456.754 c 0
 863.697 574.319 847.971 659.766 794.975 723.06 c 0
 741.979 786.354 662.426 808.25 560.537 815.195 c 0
 502.275 819.166 430.592 818.024 349.182 816.455 c 0
 349.182 817.72 l 0
 232.57 818.981 l 0
EndSplineSet
Validated: 524841
EndChar

StartChar: glyph 23
Encoding: 243 1507 23
Width: 712
VWidth: 90
Flags: HW
LayerCount: 2
Fore
SplineSet
83.1729 812.833 m 0
 26.083 757.3 l 0
 26.083 757.3 19.7275 690.106 20.0088 612.156 c 0
 20.1514 573.181 22.1826 531.714 27.2959 492.255 c 0
 32.4111 452.796 38.1709 415.406 58.8779 381.188 c 0
 97.8564 316.778 164.677 297.812 215.573 287.792 c 0
 266.47 277.771 310.319 278.957 310.319 278.957 c 0
 368.624 281.48 l 0
 364.983 402.645 l 0
 306.677 400.119 l 0
 306.677 400.119 274.245 399.182 237.44 406.431 c 0
 200.634 413.677 167.358 432.155 158.485 446.818 c 0
 155.267 452.138 146.753 477.341 142.692 508.663 c 0
 138.634 539.983 136.749 577.787 136.62 613.418 c 0
 136.479 655.487 137.519 666.818 139.05 691.67 c 0
 349.192 691.67 l 0
 439.94 691.67 484.394 667.994 515.604 627.302 c 0
 546.815 586.607 564.647 518.226 571.481 424.101 c 0
 585.146 235.85 551.919 -42.2275 564.194 -348.316 c 0
 566.624 -408.897 l 0
 683.235 -403.85 l 0
 680.806 -343.268 l 0
 669.03 -49.6279 703.38 222.355 688.093 432.936 c 0
 680.45 538.226 661.458 631.644 606.708 703.028 c 0
 551.954 774.414 462.729 812.833 349.19 812.833 c 0
 83.1729 812.833 l 0
EndSplineSet
Validated: 524841
EndChar

StartChar: glyph 24
Encoding: 245 1509 24
Width: 597
VWidth: 90
Flags: HW
LayerCount: 2
Fore
SplineSet
132.967 826.554 m 0
 20 795.001 l 0
 35.7891 735.682 l 0
 235 -30.4238 l 0
 230.141 -348.479 l 0
 228.922 -409.06 l 0
 345.533 -411.584 l 0
 346.752 -351.002 l 0
 351.609 -25.375 l 0
 349.18 -8.96875 l 0
 281.156 254.814 l 0
 298.162 257.339 l 0
 383.225 271.062 448.367 313.757 491.299 367.143 c 0
 534.23 420.529 555.691 483.173 566.609 541.315 c 0
 588.449 657.601 569.039 762.187 569.039 762.187 c 0
 558.105 822.768 l 0
 443.924 800.05 l 0
 453.643 740.73 l 0
 453.643 740.73 467.936 653.07 451.213 564.033 c 0
 442.852 519.516 427.471 476.54 401.41 444.133 c 0
 375.35 411.726 340.293 386.978 279.939 377.239 c 0
 249.572 372.191 l 0
 147.539 767.234 l 0
 132.967 826.554 l 0
EndSplineSet
Validated: 524841
EndChar

StartChar: glyph 25
Encoding: 237 1501 25
Width: 832
VWidth: 90
Flags: W
HStem: 691.508 121.163<38.6506 80.7344 409.918 605.35>
VStem: 689.297 116.609<35.207 324.388> 689.297 112.967<45.8951 584.802>
LayerCount: 2
Fore
SplineSet
409.918 818.981 m 0xa0
 326.373 820.075 223.055 815.459 98.9551 812.671 c 0
 91.3008 812.494 86.1367 812.849 78.3047 812.671 c 0
 20 811.41 l 0
 22.4277 690.248 l 0
 80.7344 691.508 l 0
 88.1953 691.649 92.875 691.331 100.168 691.508 c 0
 101.875 289.451 106.242 -25.375 106.242 -25.375 c 0
 162.119 -84.6943 l 0
 162.119 -84.6943 406.242 -92.0615 753.674 -84.6943 c 0
 805.906 -84.6943 l 0
 805.906 -83.4336 l 0
 811.979 -83.4336 l 0
 809.549 37.7295 l 0
 805.906 37.7295 l 0xc0
 805.977 212.474 808.111 352.398 802.264 456.753 c 0
 795.674 574.319 779.947 659.766 726.951 723.06 c 0
 673.957 786.354 594.402 808.25 492.516 815.194 c 0
 467.045 816.93 439.482 818.594 409.918 818.981 c 0xa0
316.385 696.557 m 0
 383.273 697.477 438.779 697.115 484.014 694.031 c 0
 574.48 687.866 616.152 671.425 639.496 643.547 c 0
 662.838 615.67 679.547 558.15 685.654 449.182 c 0
 691.102 351.959 689.273 212.134 689.297 35.207 c 0
 420.016 30.6855 260.988 35.4541 222.854 36.4668 c 0
 222.26 81.1729 218.35 331.276 216.781 694.029 c 0
 249.174 694.753 288.111 696.165 316.385 696.557 c 0
EndSplineSet
Validated: 524841
EndChar

StartChar: glyph 26
Encoding: 234 1498 26
Width: 747
VWidth: 90
Flags: W
HStem: 691.67 121.163<78.3047 366.906>
VStem: 598.191 116.611<-350.841 -69.2881>
LayerCount: 2
Fore
SplineSet
20 812.833 m 0
 20 691.67 l 0
 78.3047 691.67 l 0
 232.615 691.67 346.385 690.525 422.064 675.262 c 0
 497.744 659.996 530.771 638.675 558.111 585.65 c 0
 612.787 479.604 612.562 202.547 599.41 -348.316 c 0
 598.191 -408.898 l 0
 714.803 -411.423 l 0
 716.021 -350.841 l 0
 729.164 199.582 747.42 473.171 660.145 642.446 c 0
 616.506 727.085 538.859 774.752 443.93 793.9 c 0
 349 813.05 232.617 812.833 78.3066 812.833 c 0
 20 812.833 l 0
EndSplineSet
Validated: 524841
EndChar

StartChar: glyph 27
Encoding: 239 1503 27
Width: 160
VWidth: 90
Flags: W
LayerCount: 2
Fore
SplineSet
23.6426 812.833 m 0
 23.6426 752.251 l 0
 20 -349.578 l 4
 20 -410.16 l 4
 136.609 -410.16 l 4
 136.609 -349.578 l 4
 140.252 752.251 l 0
 140.252 812.833 l 0
 23.6426 812.833 l 0
EndSplineSet
Validated: 524809
EndChar

StartChar: glyph 28
Encoding: 48 48 28
Width: 587
VWidth: 40
Flags: HW
HStem: 703.513 95.9209<200.552 368.077>
VStem: 20 93.5352<171.823 563.554> 473.082 93.5273<176.524 550.375>
LayerCount: 2
Fore
SplineSet
290.879 799.434 m 0
 185.695 803.629 107.504 743.283 68.5898 658.078 c 0
 29.6758 572.869 20 465.155 20 351.383 c 0
 20 234.997 39.9141 129.904 81.9492 48.4736 c 0
 123.984 -32.957 192.895 -92.1592 279.945 -96.6699 c 0
 368.766 -101.272 444.641 -44.2637 492.516 37.1143 c 0
 540.391 118.492 566.609 225.856 566.609 343.81 c 0
 566.609 458.105 553.883 564.436 513.164 649.241 c 0
 472.441 734.048 395.145 795.275 290.879 799.434 c 0
288.449 703.513 m 0
 363.203 700.531 400.949 668.015 430.566 606.33 c 0
 460.188 544.645 473.082 450.325 473.082 343.81 c 0
 473.082 240.948 449.77 149.143 413.562 87.5996 c 0
 377.355 26.0566 333.777 -2.02441 284.805 0.513672 c 0
 234.062 3.14355 196.293 32.4199 164.551 93.9092 c 0
 132.809 155.399 113.535 246.954 113.535 351.383 c 0
 113.535 458.422 125.633 555.144 153.621 616.427 c 0
 181.609 677.711 214.613 706.458 288.449 703.513 c 0
EndSplineSet
Validated: 524841
EndChar

StartChar: glyph 29
Encoding: 57 57 29
Width: 563
VWidth: 40
Flags: HW
HStem: -70.3262 95.9199<58.054 349.633> 194.718 95.9209<206.346 354.663> 699.565 97.1836<206.346 352.976>
VStem: 20 92.3164<394.546 595.736> 447.574 93.5273<395.982 593.398>
LayerCount: 2
Fore
SplineSet
279.945 796.749 m 0
 133.172 796.749 20 657.781 20 495.103 c 0
 20 332.422 133.172 194.718 279.945 194.718 c 0
 344.16 194.718 401.672 220.859 446.359 264.135 c 0
 442.715 208.987 434.582 160.586 418.422 124.039 c 0
 400.305 83.0703 374.332 55.1133 327.32 35.6904 c 0
 280.309 16.2676 208.945 8.27051 105.031 20.5459 c 0
 58.8711 25.5938 l 0
 47.9375 -70.3262 l 0
 95.3086 -75.375 l 0
 208.562 -88.7529 294.867 -81.8779 362.543 -53.9189 c 0
 430.219 -25.96 475.988 24.2998 502.23 83.6504 c 0
 554.723 202.355 540.941 350.239 541.102 493.84 c 0
 541.102 541.8 l 0
 536.242 541.8 l 0
 516.934 683.361 412.34 796.749 279.945 796.749 c 0
279.945 699.565 m 0
 369.316 699.565 447.574 611.771 447.574 495.103 c 0
 447.574 378.433 369.32 290.639 279.945 290.639 c 0
 190.574 290.639 112.316 378.433 112.316 495.103 c 0
 112.316 611.771 190.574 699.565 279.945 699.565 c 0
EndSplineSet
Validated: 524841
EndChar

StartChar: glyph 30
Encoding: 56 56 30
Width: 583
VWidth: 40
Flags: HW
HStem: -76.6377 97.1836<177.337 403.645> 320.93 117.376<197.785 384.277> 699.565 97.1836<207.427 366.622>
VStem: 20 93.5312<81.7989 258.366> 61.3047 93.5352<482.269 646.76> 429.355 93.5234<483.64 641.157> 470.648 92.3164<83.6437 252.368>
LayerCount: 2
Fore
SplineSet
264.156 796.749 m 0xe4
 202.684 791.679 152.348 763.455 118.395 724.808 c 0
 79.5898 680.64 61.3047 624.439 61.3047 570.829 c 0xec
 61.3047 522.747 68.7891 466.598 105.031 419.375 c 0
 114.898 406.519 126.516 395.455 140.258 385.298 c 0
 121.816 375.407 104.984 363.733 90.4531 349.959 c 0
 43.3672 305.312 20 242.539 20 179.572 c 0
 20 122.135 30.3516 57.0879 73.4453 5.39941 c 0
 116.539 -46.2881 188.379 -76.6377 289.66 -76.6377 c 0
 390.656 -76.6377 462.895 -47.5977 507.09 2.87598 c 0
 551.285 53.3486 562.965 119.048 562.965 177.048 c 0xf2
 562.965 240.576 538.891 302.1 491.297 346.172 c 0
 476.094 360.251 458.379 372.598 439.066 382.773 c 0
 453.105 392.663 465.32 404.188 475.508 416.851 c 0
 512.707 463.084 522.879 519.66 522.879 568.305 c 0
 522.879 676.651 437.207 793.225 290.871 796.749 c 0
 281.637 796.961 272.93 797.474 264.156 796.749 c 0xe4
289.664 699.565 m 0
 391.562 697.115 429.355 627.578 429.355 568.305 c 0
 429.355 533.141 421.406 500.517 403.848 478.694 c 0
 386.289 456.872 356.234 438.306 289.668 438.306 c 0
 223.391 438.306 196.238 456.403 179.133 478.694 c 0
 162.023 500.985 154.84 535.102 154.84 570.829 c 0
 154.84 601.027 164.977 634.767 186.422 659.177 c 0
 207.867 683.588 239.438 700.773 289.664 699.565 c 0
288.445 320.93 m 0
 356.008 319.302 401.523 300 429.348 274.231 c 0
 457.176 248.464 470.648 216.04 470.648 177.048 c 0
 470.648 132.527 460.637 94.5254 437.852 68.5059 c 0
 415.07 42.4863 374.254 20.5459 289.66 20.5459 c 0
 205.355 20.5459 166.062 43.1787 143.898 69.7676 c 0
 121.73 96.3564 113.531 134.488 113.531 179.572 c 0xf2
 113.531 219.127 125.785 252.779 152.402 278.018 c 0
 179.02 303.256 221.602 322.539 288.445 320.93 c 0
EndSplineSet
Validated: 524841
EndChar

StartChar: glyph 31
Encoding: 55 55 31
Width: 557
VWidth: 40
Flags: HW
LayerCount: 2
Fore
SplineSet
20 817.104 m 0
 20 719.921 l 0
 66.1602 719.921 l 0
 426.926 719.921 l 0
 173.055 9.34766 l 0
 157.262 -36.0879 l 0
 244.723 -70.165 l 0
 260.512 -24.7295 l 0
 537.461 751.474 l 0
 493.73 817.104 l 0
 66.1602 817.104 l 0
 20 817.104 l 0
EndSplineSet
Validated: 524809
EndChar

StartChar: glyph 32
Encoding: 54 54 32
Width: 564
VWidth: 40
Flags: HW
HStem: -76.6377 97.1836<213.929 360.479> 429.472 97.1826<209.318 357.364> 700.828 95.9209<222.655 505.73>
VStem: 21.5186 94.7461<126.576 321.881> 450.308 93.5312<122.198 325.643>
LayerCount: 2
Fore
SplineSet
388.358 803.059 m 0
 363.312 803.626 340.019 802.364 317.905 800.535 c 0
 273.679 796.876 235.132 789.271 201.296 775.292 c 0
 133.62 747.334 86.6357 695.811 60.3896 636.46 c 0
 7.89746 517.756 21.6787 371.133 21.5186 227.533 c 0
 21.5186 178.311 l 0
 26.3779 178.311 l 0
 46.46 36.2744 155.14 -76.6377 287.538 -76.6377 c 0
 434.312 -76.6377 543.839 63.1543 543.839 225.009 c 0
 543.839 387.688 430.667 526.654 283.894 526.654 c 0
 220.28 526.654 162.249 501.324 117.479 458.501 c 0
 121.194 512.605 129.499 560.076 145.417 596.071 c 0
 163.534 637.039 188.288 664.997 235.304 684.42 c 0
 282.315 703.843 354.894 713.102 458.808 700.828 c 0
 504.964 694.517 l 0
 514.683 791.7 l 0
 468.526 796.749 l 0
 440.214 800.094 413.405 802.492 388.358 803.059 c 0
283.894 429.472 m 0
 373.265 429.472 450.308 341.678 450.308 225.009 c 0
 450.308 107.515 376.909 20.5459 287.538 20.5459 c 0
 198.167 20.5459 116.265 109.166 116.265 225.009 c 0
 116.265 341.678 194.522 429.472 283.894 429.472 c 0
EndSplineSet
Validated: 524841
EndChar

StartChar: glyph 33
Encoding: 53 53 33
Width: 574
VWidth: 40
Flags: HW
LayerCount: 2
Fore
SplineSet
122.027 779.239 m 0
 75.8711 731.279 l 0
 75.8711 423.323 l 0
 134.176 376.625 l 0
 134.176 376.625 218.398 399.751 299.375 386.721 c 0
 339.863 380.207 378.266 365.378 406.27 337.499 c 0
 434.273 309.619 455.402 267.297 459.715 193.617 c 0
 463.922 121.76 445.098 84.3389 415.984 57.3086 c 0
 386.871 30.2783 341.547 14.666 292.086 8.08594 c 0
 193.16 -5.07422 86.8047 19.4443 86.8047 19.4443 c 0
 40.6484 30.8037 l 0
 20 -63.8545 l 0
 64.9414 -75.2148 l 0
 64.9414 -75.2148 183.105 -103.95 304.238 -87.835 c 0
 364.805 -79.7773 428.176 -60.8359 477.938 -14.6328 c 0
 527.703 31.5713 558.762 105.771 553.25 199.928 c 0
 547.844 292.265 516.531 361.236 470.652 406.916 c 0
 424.77 452.595 367.125 474.089 313.957 482.642 c 0
 257.582 491.714 206.578 487.219 168.191 481.379 c 0
 168.191 683.317 l 0
 467.008 683.317 l 0
 513.164 683.317 l 0
 513.164 779.238 l 0
 467.008 779.238 l 0
 122.027 779.239 l 0
EndSplineSet
Validated: 524841
EndChar

StartChar: glyph 34
Encoding: 52 52 34
Width: 630
VWidth: 40
Flags: HW
LayerCount: 2
Fore
SplineSet
384.406 775.453 m 0
 20 217.598 l 0
 58.8711 143.133 l 0
 377.121 143.133 l 0
 377.121 -27.2529 l 0
 377.121 -76.4756 l 0
 469.438 -76.4756 l 0
 469.438 -27.2529 l 0
 469.438 143.133 l 0
 564.184 143.133 l 0
 610.344 143.133 l 0
 610.344 239.054 l 0
 564.184 239.054 l 0
 469.438 239.054 l 0
 469.438 748.949 l 0
 384.406 775.453 l 0
377.117 591.184 m 0
 377.117 239.054 l 0
 147.539 239.054 l 0
 377.117 591.184 l 0
EndSplineSet
Validated: 524809
EndChar

StartChar: glyph 35
Encoding: 51 51 35
Width: 601
VWidth: 40
Flags: W
HStem: 334.975 97.1826<205.848 324.175> 703.513 97.1826<144.035 418.487>
VStem: 487.656 93.5312<69.9571 224.527>
LayerCount: 2
Fore
SplineSet
313.961 800.695 m 0
 209.645 802.53 113.535 772.93 113.535 772.93 c 0
 68.5898 760.309 l 0
 92.8828 666.912 l 0
 137.828 679.532 l 0
 137.828 679.532 226.391 705.031 312.742 703.513 c 0
 355.918 702.755 397.477 694.134 424.492 678.271 c 0
 451.508 662.406 466.727 643.6 470.652 600.02 c 0
 474.734 554.699 463.102 529.28 442.715 506.623 c 0
 422.328 483.965 389.68 466.645 354.043 454.876 c 0
 283.34 431.526 208.297 432.141 207.066 432.157 c 0
 207.055 432.157 205.848 432.157 205.848 432.157 c 0
 204.629 384.197 l 0
 202.199 334.975 l 0
 202.199 334.975 203.402 334.975 203.418 334.975 c 0
 204.59 334.935 279.395 331.279 352.824 303.422 c 0
 389.828 289.386 425.992 269.268 450 244.102 c 0
 474.008 218.936 487.457 191.062 487.656 148.181 c 0
 487.832 104.131 475.422 77.7422 453.645 56.0469 c 0
 431.867 34.3496 398.18 17.6191 356.469 8.08594 c 0
 273.043 -10.9795 162.34 -0.270508 88.0195 19.4443 c 0
 43.0781 30.8037 l 0
 20 -62.5928 l 0
 64.9453 -75.2139 l 0
 152.105 -98.3359 270.266 -110.718 375.906 -86.5723 c 0
 428.727 -74.501 479.188 -52.0625 518.023 -13.3701 c 0
 556.863 25.3213 581.492 81.5449 581.188 148.181 c 0
 580.867 215.987 553.527 272.492 515.594 312.256 c 0
 486.867 342.372 452.938 361.668 418.418 377.887 c 0
 451.738 392.528 483.992 411.271 510.734 440.992 c 0
 547.031 481.333 570.426 540.77 564.18 610.117 c 0
 557.777 681.202 519.004 734.438 470.648 762.833 c 0
 422.289 791.227 366.109 799.779 313.961 800.695 c 0
EndSplineSet
Validated: 524841
EndChar

StartChar: glyph 36
Encoding: 50 50 36
Width: 616
VWidth: 40
Flags: W
HStem: 660.602 95.9209<78.3292 129.573>
LayerCount: 2
Fore
SplineSet
311.535 814.58 m 0
 285.336 816.742 259.613 814.619 236.223 810.795 c 0
 189.441 803.166 148.719 787.472 119.613 774.193 c 0
 105.059 767.555 93.6367 762.157 85.6016 757.785 c 0
 84.4883 757.181 84.1406 757.061 83.1719 756.522 c 0
 49.1602 756.522 l 0
 49.1602 708.562 l 0
 49.1602 708.562 78.3047 663.129 78.3125 663.126 c 0
 78.3125 663.126 101.375 660.602 101.391 660.602 c 0
 101.402 660.602 107.082 661.395 108.68 661.864 c 0
 110.277 662.333 111.488 662.807 112.32 663.129 c 0
 115.68 664.415 116.305 665.208 117.18 665.653 c 0
 118.93 666.543 119.723 666.306 120.82 666.918 c 0
 123.023 668.139 125.934 670.122 129.324 671.966 c 0
 136.102 675.653 145.195 680.345 157.262 685.85 c 0
 181.395 696.858 215.125 709.062 250.793 714.879 c 0
 322.129 726.512 395.609 719.741 454.863 618.957 c 0
 478.207 579.251 472.059 528.71 440.285 462.455 c 0
 408.516 396.199 351.012 321.479 288.449 254.205 c 0
 163.32 119.656 20 11.8779 20 11.8779 c 0
 47.9375 -75.208 l 0
 549.605 -76.4727 l 0
 595.762 -76.4727 l 0
 595.762 20.7119 l 0
 549.605 20.7119 l 0
 181.555 21.9756 l 0
 233.199 66.3965 295.711 121.977 356.469 187.312 c 0
 422.75 258.586 485.012 338.036 524.098 419.543 c 0
 563.184 501.049 579.219 592.213 533.816 669.441 c 0
 475.137 769.257 390.121 808.095 311.535 814.58 c 0
EndSplineSet
Validated: 524841
EndChar

StartChar: glyph 37
Encoding: 49 49 37
Width: 506
VWidth: 40
Flags: W
LayerCount: 2
Fore
SplineSet
270.227 789.176 m 0
 66.1562 748.788 l 0
 20 738.69 l 0
 37.0078 644.031 l 0
 83.1641 652.867 l 0
 232.57 681.896 l 0
 232.57 20.5459 l 0
 94.0938 20.5459 l 0
 47.9336 20.5459 l 0
 47.9336 -76.6377 l 0
 94.0938 -76.6377 l 0
 440.281 -76.6377 l 0
 486.438 -76.6377 l 0
 486.438 20.5459 l 0
 440.281 20.5459 l 0
 324.887 20.5459 l 0
 324.887 741.216 l 0
 270.227 789.176 l 0
EndSplineSet
Validated: 524809
EndChar

StartChar: glyph 38
Encoding: 59 59 38
Width: 244
VWidth: -70
Flags: HW
LayerCount: 2
Fore
SplineSet
107.459 578.207 m 0
 107.459 517.625 l 0
 107.459 472.188 l 0
 107.459 411.606 l 0
 224.068 411.606 l 0
 224.068 472.188 l 0
 224.068 517.625 l 0
 224.068 578.207 l 0
 107.459 578.207 l 0
107.459 112.483 m 0
 107.459 51.9023 l 0
 107.459 -1.10645 l 0
 46.7246 -122.27 l 0
 20 -175.278 l 0
 123.248 -232.073 l 0
 149.973 -177.803 l 0
 217.994 -42.7559 l 0
 224.068 -14.9893 l 0
 224.068 51.9023 l 0
 224.068 112.483 l 0
 107.459 112.483 l 0
EndSplineSet
Validated: 524809
EndChar

StartChar: glyph 39
Encoding: 126 126 39
Width: 803
VWidth: 90
Flags: HW
LayerCount: 2
Fore
SplineSet
306.668 588.176 m 0
 262.85 590.931 220.957 583.145 186.412 571.769 c 0
 117.324 549.016 67.373 511.187 67.373 511.187 c 0
 20 475.847 l 0
 86.8086 377.401 l 0
 135.396 412.74 l 0
 135.396 412.74 171.92 439.278 221.641 455.653 c 0
 271.361 472.026 323.49 476.42 368.617 441.77 c 0
 451.666 378.006 548.133 382.729 616.416 401.383 c 0
 684.697 420.036 734.242 454.392 734.242 454.392 c 0
 782.83 487.206 l 0
 719.666 588.176 l 0
 671.078 555.36 l 0
 671.078 555.36 634.857 532.093 586.051 518.759 c 0
 537.24 505.426 484.256 503.328 437.857 538.953 c 0
 395.697 571.323 350.49 585.42 306.668 588.176 c 0
EndSplineSet
Validated: 524841
EndChar

StartChar: glyph 40
Encoding: 46 46 40
Width: 157
VWidth: -70
Flags: HW
LayerCount: 2
Fore
SplineSet
20 111.384 m 0
 20 50.8018 l 0
 20 5.36523 l 0
 20 -55.2158 l 0
 136.611 -55.2158 l 0
 136.611 5.36523 l 0
 136.611 50.8018 l 0
 136.611 111.384 l 0
 20 111.384 l 0
EndSplineSet
Validated: 524809
EndChar

StartChar: glyph 41
Encoding: 63 63 41
Width: 542
VWidth: -70
Flags: W
VStem: 199.775 116.611<174.833 224.812 296.754 354.819>
LayerCount: 2
Fore
SplineSet
273.871 845.775 m 0
 253.178 846.653 231.674 844.61 209.492 840.727 c 0
 165.129 832.962 118.895 815.154 71.0176 786.455 c 0
 20 756.165 l 0
 78.3047 651.408 l 0
 129.322 681.699 l 0
 204.598 726.821 261.285 730.247 303.023 718.301 c 0
 344.764 706.355 374 676.962 390.48 641.312 c 0
 406.961 605.663 408.463 565.518 395.338 535.295 c 0
 382.215 505.07 357.197 479.708 298.162 469.664 c 0
 283.586 464.615 l 0
 248.832 448.365 228.029 417.382 216.777 388.888 c 0
 205.529 360.395 201.793 331.569 199.771 305.589 c 0
 195.729 253.627 202.201 208.405 202.201 208.405 c 0
 209.488 149.087 l 0
 324.883 165.492 l 0
 317.596 224.812 l 0
 317.596 224.812 313.553 260.363 316.377 296.754 c 0
 317.795 314.948 320.67 332.79 324.881 343.451 c 0
 329.092 354.114 331.354 354.998 330.955 354.812 c 0
 330.955 356.071 l 0
 412.031 374.769 474.855 423.035 502.227 486.07 c 0
 531.453 553.381 526.049 629.655 496.154 694.319 c 0
 466.258 758.982 409.146 813.994 333.385 835.677 c 0
 314.443 841.098 294.559 844.896 273.871 845.775 c 0
199.775 111.223 m 0
 199.775 50.6406 l 0
 199.775 5.20508 l 0
 199.775 -55.377 l 0
 316.387 -55.377 l 0
 316.387 5.20508 l 0
 316.387 50.6406 l 0
 316.387 111.223 l 0
 199.775 111.223 l 0
EndSplineSet
Validated: 524841
EndChar

StartChar: glyph 42
Encoding: 60 60 42
Width: 738
VWidth: -70
Flags: HW
LayerCount: 2
Fore
SplineSet
677.148 646.521 m 0
 622.488 625.065 l 0
 20 385.264 l 0
 20 271.674 l 0
 617.631 31.8711 l 0
 672.291 10.4141 l 0
 714.807 124.005 l 0
 660.145 145.462 l 0
 204.635 328.468 l 0
 665.004 511.476 l 0
 718.449 532.932 l 0
 677.148 646.521 l 0
EndSplineSet
Validated: 524809
EndChar

StartChar: glyph 43
Encoding: 62 62 43
Width: 738
VWidth: -70
Flags: HW
LayerCount: 2
Fore
SplineSet
61.2988 646.521 m 0
 20 532.932 l 0
 74.6602 511.476 l 0
 535.029 328.468 l 0
 79.5195 145.462 l 0
 24.8574 124.005 l 0
 66.1582 10.4141 l 0
 120.818 31.8701 l 0
 718.447 271.674 l 0
 718.447 385.264 l 0
 115.959 625.065 l 0
 61.2988 646.521 l 0
EndSplineSet
Validated: 524809
EndChar

StartChar: glyph 44
Encoding: 58 58 44
Width: 161
VWidth: -70
Flags: HW
LayerCount: 2
Fore
SplineSet
20 578.207 m 0
 20 517.625 l 0
 20 472.188 l 0
 20 411.606 l 0
 136.609 411.606 l 0
 136.609 472.188 l 0
 136.609 517.625 l 0
 136.609 578.207 l 0
 20 578.207 l 0
24.8594 111.223 m 0
 24.8594 50.6406 l 0
 24.8594 5.20508 l 0
 24.8594 -55.377 l 0
 141.469 -55.377 l 0
 141.469 5.20508 l 0
 141.469 50.6406 l 0
 141.469 111.223 l 0
 24.8594 111.223 l 0
EndSplineSet
Validated: 524809
EndChar

StartChar: glyph 45
Encoding: 44 44 45
Width: 244
VWidth: -70
Flags: HW
LayerCount: 2
Fore
SplineSet
107.457 112.646 m 0
 107.457 52.0635 l 0
 107.457 -0.944336 l 0
 46.7227 -122.108 l 0
 20 -175.117 l 0
 123.25 -231.912 l 0
 149.973 -177.642 l 0
 217.994 -42.5947 l 0
 224.068 -14.8281 l 0
 224.068 52.0635 l 0
 224.068 112.646 l 0
 107.457 112.646 l 0
EndSplineSet
Validated: 524809
EndChar

StartChar: glyph 46
Encoding: 124 124 46
Width: 159
VWidth: 90
Flags: HW
LayerCount: 2
Fore
SplineSet
22.4297 1023.61 m 0
 22.4297 963.024 l 0
 20 -98.416 l 0
 20 -158.999 l 0
 136.611 -158.999 l 0
 136.611 -98.416 l 0
 139.041 963.024 l 0
 139.041 1023.61 l 0
 22.4297 1023.61 l 0
EndSplineSet
Validated: 524809
EndChar

StartChar: glyph 47
Encoding: 123 123 47
Width: 488
VWidth: 90
Flags: HW
LayerCount: 2
Fore
SplineSet
321.244 1032.44 m 0
 281.582 1024.6 228.363 993.814 205.848 931.472 c 0
 183.141 868.598 185.193 795.727 183.982 725.746 c 0
 183.377 690.757 182.637 657.244 180.338 631.088 c 0
 178.037 604.931 172.793 585.172 173.051 585.65 c 0
 175.408 590.05 137.953 562.755 97.7402 551.574 c 0
 57.5254 540.394 20 536.429 20 536.429 c 0
 20 415.266 l 0
 20 415.266 51.6973 412.461 89.2363 400.119 c 0
 126.775 387.779 165.617 365.357 180.338 343.324 c 0
 188.324 331.37 191.338 274.111 185.197 205.754 c 0
 179.057 137.396 163.932 56.624 211.922 -13.8545 c 0
 249.404 -68.9043 302.135 -92.917 341.893 -97.1543 c 0
 381.652 -101.393 413.561 -88.3193 413.561 -88.3193 c 0
 468.223 -65.6025 l 0
 425.707 46.7266 l 0
 371.047 25.2705 l 0
 371.047 25.2705 366.225 22.7109 354.041 24.0068 c 0
 341.857 25.3057 327.51 27.998 307.883 56.8213 c 0
 298.762 70.2188 295.697 126.365 301.811 194.392 c 0
 307.922 262.421 323.379 341.016 276.301 411.477 c 0
 259.139 437.165 236.707 454.252 214.352 469.534 c 0
 237.014 482.577 258.236 498.438 273.871 527.592 c 0
 290.561 558.705 294.072 588.253 296.949 620.988 c 0
 299.828 653.725 299.982 688.01 300.594 723.22 c 0
 301.811 793.641 306.355 867.515 313.955 888.558 c 0
 321.748 910.132 329.281 911.067 343.107 913.801 c 0
 356.934 916.533 369.832 913.801 369.832 913.801 c 0
 426.922 901.18 l 0
 451.217 1019.82 l 0
 394.125 1032.44 l 0
 394.125 1032.44 360.904 1040.28 321.244 1032.44 c 0
EndSplineSet
Validated: 524837
EndChar

StartChar: glyph 48
Encoding: 125 125 48
Width: 487
VWidth: 90
Flags: HW
LayerCount: 2
Fore
SplineSet
92.8809 1032.44 m 0
 35.7891 1019.82 l 0
 61.2969 901.182 l 0
 118.389 913.803 l 0
 118.389 913.803 130.07 916.535 143.898 913.803 c 0
 157.725 911.068 165.26 910.135 173.051 888.56 c 0
 180.65 867.517 185.193 793.643 186.412 723.223 c 0
 187.02 688.013 188.393 653.727 191.271 620.99 c 0
 194.15 588.255 196.447 558.708 213.135 527.594 c 0
 228.619 498.719 250.244 482.563 272.656 469.537 c 0
 250.34 454.265 229.055 437.125 211.922 411.479 c 0
 164.846 341.018 180.301 262.422 186.412 194.395 c 0
 192.523 126.367 189.461 70.2207 180.34 56.8232 c 0
 160.711 27.998 146.363 25.3076 134.182 24.0088 c 0
 122 22.71 117.176 25.2686 117.176 25.2686 c 0
 62.5137 46.7246 l 0
 20 -65.6035 l 0
 73.4453 -88.3213 l 0
 73.4453 -88.3213 106.568 -101.394 146.328 -97.1562 c 0
 186.088 -92.9189 237.602 -68.9062 275.086 -13.8564 c 0
 323.074 56.6221 307.949 137.394 301.809 205.752 c 0
 295.666 274.109 298.678 331.368 306.668 343.322 c 0
 321.389 365.356 360.23 387.777 397.77 400.117 c 0
 435.307 412.459 467.006 415.264 467.006 415.264 c 0
 467.006 536.428 l 0
 467.006 536.428 430.693 540.393 390.48 551.572 c 0
 350.268 562.753 312.811 590.048 315.17 585.649 c 0
 315.418 585.168 308.969 604.929 306.668 631.086 c 0
 304.365 657.244 303.631 690.755 303.023 725.744 c 0
 301.812 795.725 305.08 868.596 282.373 931.471 c 0
 259.857 993.812 205.424 1024.6 165.762 1032.44 c 0
 126.1 1040.28 92.8809 1032.44 92.8809 1032.44 c 0
EndSplineSet
Validated: 524837
EndChar

StartChar: glyph 49
Encoding: 92 92 49
Width: 452
VWidth: -70
Flags: W
LayerCount: 2
Fore
SplineSet
131.752 840.888 m 0
 20 804.287 l 0
 38.2207 746.229 l 0
 303.023 -117.061 l 0
 320.029 -173.854 l 0
 431.781 -137.253 l 0
 413.561 -79.1963 l 0
 148.758 784.093 l 0
 131.752 840.888 l 0
EndSplineSet
Validated: 524809
EndChar

StartChar: glyph 50
Encoding: 91 91 50
Width: 285
VWidth: -70
Flags: HW
VStem: 20 245.367
LayerCount: 2
Fore
SplineSet
78.3047 871.179 m 0
 20 810.597 l 0
 20 -151.137 l 0
 78.3047 -211.719 l 0
 207.062 -211.719 l 0
 265.367 -211.719 l 0
 265.367 -90.5557 l 0
 207.062 -90.5557 l 0
 136.611 -90.5557 l 0
 136.611 750.016 l 0
 199.773 750.016 l 0
 258.08 750.016 l 0
 258.08 871.179 l 0
 199.773 871.179 l 0
 78.3047 871.179 l 0
EndSplineSet
Validated: 524809
EndChar

StartChar: glyph 51
Encoding: 93 93 51
Width: 285
VWidth: -70
Flags: HW
VStem: 20 245.369
LayerCount: 2
Fore
SplineSet
27.2871 871.179 m 0
 27.2871 750.016 l 0
 85.5918 750.016 l 0
 148.756 750.016 l 0
 148.756 -90.5557 l 0
 78.3047 -90.5557 l 0
 20 -90.5557 l 0
 20 -211.719 l 0
 78.3047 -211.719 l 0
 207.062 -211.719 l 0
 265.369 -151.137 l 0
 265.369 810.597 l 0
 207.062 871.179 l 0
 85.5938 871.179 l 0
 27.2871 871.179 l 0
EndSplineSet
Validated: 524809
EndChar

StartChar: glyph 52
Encoding: 39 39 52
Width: 157
VWidth: -70
Flags: HW
VStem: 20 116.609
LayerCount: 2
Fore
SplineSet
20 838.363 m 0
 20 777.782 l 0
 20 551.862 l 0
 20 491.281 l 0
 136.609 491.281 l 0
 136.609 551.862 l 0
 136.609 777.782 l 0
 136.609 838.363 l 0
 20 838.363 l 0
EndSplineSet
Validated: 524809
EndChar

StartChar: glyph 53
Encoding: 47 47 53
Width: 461
VWidth: -70
Flags: HW
LayerCount: 2
Fore
SplineSet
330.957 853.51 m 0
 312.738 796.714 l 0
 38.2188 -79.1963 l 0
 20 -137.253 l 0
 130.535 -173.854 l 0
 148.758 -117.061 l 0
 423.277 758.851 l 0
 441.496 816.907 l 0
 330.957 853.51 l 0
EndSplineSet
Validated: 524809
EndChar

StartChar: glyph 54
Encoding: 43 43 54
Width: 759
VWidth: -70
Flags: HW
LayerCount: 2
Fore
SplineSet
321.242 699.369 m 0
 321.242 638.788 l 0
 321.242 386.363 l 0
 78.3047 386.363 l 0
 20 386.363 l 0
 20 265.2 l 0
 78.3047 265.2 l 0
 321.242 265.2 l 0
 321.242 12.7764 l 0
 321.242 -47.8047 l 0
 437.852 -47.8047 l 0
 437.852 12.7764 l 0
 437.852 265.2 l 0
 680.789 265.2 l 0
 739.094 265.2 l 0
 739.094 386.363 l 0
 680.789 386.363 l 0
 437.852 386.363 l 0
 437.852 638.788 l 0
 437.852 699.369 l 0
 321.242 699.369 l 0
EndSplineSet
Validated: 524809
EndChar

StartChar: glyph 55
Encoding: 95 95 55
Width: 633
VWidth: -70
Flags: HW
HStem: -335.405 121.163
LayerCount: 2
Fore
SplineSet
20 -214.242 m 0
 20 -335.405 l 0
 78.3047 -335.405 l 0
 554.465 -335.405 l 0
 612.77 -335.405 l 0
 612.77 -214.242 l 0
 554.465 -214.242 l 0
 78.3047 -214.242 l 0
 20 -214.242 l 0
EndSplineSet
Validated: 524801
EndChar

StartChar: glyph 56
Encoding: 41 41 56
Width: 324
VWidth: -70
Flags: HW
LayerCount: 2
Fore
SplineSet
126.895 876.228 m 0
 23.6445 820.694 l 0
 50.3672 766.424 l 0
 165.324 537.682 196.238 385.982 185.199 260.313 c 0
 174.16 134.645 119.82 27.1221 47.9375 -108.225 c 0
 20 -161.233 l 0
 122.035 -219.291 l 0
 149.973 -166.282 l 0
 222.199 -30.29 288.191 93.9453 301.809 248.955 c 0
 315.426 403.964 274.555 582.571 153.617 823.219 c 0
 126.895 876.228 l 0
EndSplineSet
Validated: 524841
EndChar

StartChar: glyph 57
Encoding: 40 40 57
Width: 323
VWidth: -70
Flags: HW
LayerCount: 2
Fore
SplineSet
196.254 876.228 m 0
 169.531 823.219 l 0
 48.5938 582.571 8.9375 403.964 22.5547 248.954 c 0
 36.1719 93.9453 100.953 -30.29 173.176 -166.282 c 0
 201.113 -219.291 l 0
 303.148 -161.233 l 0
 275.211 -108.225 l 0
 203.328 27.1211 148.992 134.645 137.949 260.313 c 0
 126.91 385.982 157.824 537.682 272.781 766.424 c 0
 299.504 820.694 l 0
 196.254 876.228 l 0
EndSplineSet
Validated: 524841
EndChar

StartChar: glyph 58
Encoding: 42 42 58
Width: 536
VWidth: -70
Flags: W
LayerCount: 2
Fore
SplineSet
467.523 372.173 m 0
 301.461 430.683 l 0
 160.934 321.719 l 0
 163.164 503.896 l 0
 20 609.093 l 0
 187.445 663.175 l 0
 239.492 837.155 l 0
 340.742 688.401 l 0
 516.07 690.731 l 0
 411.199 544.716 l 0
 467.523 372.173 l 0
EndSplineSet
Validated: 524801
EndChar

StartChar: glyph 59
Encoding: 38 38 59
Width: 797
VWidth: -70
Flags: HW
LayerCount: 2
Fore
SplineSet
353.461 858.396 m 0
 345.902 858.29 337.82 857.926 330.383 857.136 c 0
 270.887 850.812 216.117 822.945 178.547 776.359 c 0
 140.973 729.775 121.992 664.622 131.176 595.877 c 0
 135.281 565.142 145.41 533.84 160.328 502.48 c 0
 76.4844 417.126 31.2344 329.959 21.8516 246.271 c 0
 11.918 157.66 42.8281 77.2578 93.5195 20.3506 c 0
 194.898 -93.4619 375.801 -130.538 500.441 -23.8223 c 0
 523.906 -3.73145 549.043 16.7578 574.539 39.2832 c 0
 636.488 -26.3477 l 0
 677.789 -69.2598 l 0
 760.387 16.5645 l 0
 719.086 59.4775 l 0
 657.137 123.845 l 0
 702.508 179.171 742.031 248.139 764.031 343.454 c 0
 777.395 401.512 l 0
 664.426 430.54 l 0
 649.852 371.221 l 0
 633.359 299.764 607.676 250.397 575.754 209.67 c 0
 324.312 470.928 l 0
 272.699 526.684 251.578 576.07 246.57 613.547 c 0
 241.566 651.024 251.395 676.979 268.434 698.108 c 0
 302.52 740.368 372.676 759.087 444.566 706.943 c 0
 493.156 672.867 l 0
 559.965 772.574 l 0
 511.379 806.65 l 0
 461.164 843.073 406.383 859.159 353.461 858.396 c 0
227.133 402.771 m 0
 231.645 397.531 235.66 391.587 240.492 386.363 c 0
 241.711 386.363 l 0
 491.938 125.105 l 0
 471.23 107.615 449.055 90.2783 426.344 70.835 c 0
 357.391 11.7988 241.426 33.1582 179.762 102.388 c 0
 148.93 137.003 131.328 179.566 137.246 232.386 c 0
 142.461 278.896 167.062 337.429 227.133 402.771 c 0
EndSplineSet
Validated: 524841
EndChar

StartChar: glyph 60
Encoding: 94 94 60
Width: 751
VWidth: -70
Flags: HW
LayerCount: 2
Fore
SplineSet
406.273 835.84 m 0
 327.32 834.575 l 0
 62.5156 569.53 l 0
 20 526.619 l 0
 101.383 439.533 l 0
 142.684 481.182 l 0
 368.617 707.102 l 0
 609.125 481.182 l 0
 651.641 440.795 l 0
 730.598 530.404 l 0
 686.867 570.793 l 0
 406.273 835.84 l 0
EndSplineSet
Validated: 524809
EndChar

StartChar: glyph 61
Encoding: 37 37 61
Width: 1046
VWidth: -70
Flags: HW
LayerCount: 2
Fore
SplineSet
739.098 860.921 m 0
 708.73 809.174 l 0
 259.293 29.1846 l 0
 230.141 -22.5625 l 0
 329.746 -85.668 l 0
 360.113 -33.9209 l 0
 809.551 746.067 l 0
 838.703 797.814 l 0
 739.098 860.921 l 0
238.645 825.582 m 0
 118.578 825.582 20 723.15 20 598.399 c 0
 20 473.648 118.578 371.219 238.645 371.219 c 0
 358.707 371.219 457.289 473.648 457.289 598.399 c 0
 457.289 723.15 358.711 825.582 238.645 825.582 c 0
238.645 704.419 m 0
 295.688 704.419 340.676 657.67 340.676 598.399 c 0
 340.676 539.13 295.688 492.383 238.645 492.383 c 0
 181.598 492.383 136.609 539.13 136.609 598.399 c 0
 136.609 657.67 181.598 704.419 238.645 704.419 c 0
807.121 401.51 m 0
 687.059 401.51 588.477 299.08 588.477 174.328 c 0
 588.477 49.5771 687.059 -52.8535 807.121 -52.8535 c 0
 927.184 -52.8535 1025.77 49.5771 1025.77 174.328 c 0
 1025.77 299.08 927.184 401.51 807.121 401.51 c 0
807.121 280.346 m 0
 864.164 280.346 909.156 233.599 909.156 174.328 c 0
 909.156 115.059 864.168 68.3105 807.121 68.3105 c 0
 750.078 68.3105 705.086 115.059 705.086 174.328 c 0
 705.086 233.599 750.078 280.346 807.121 280.346 c 0
EndSplineSet
Validated: 524809
EndChar

StartChar: glyph 62
Encoding: 36 36 62
Width: 613
VWidth: -70
Flags: HW
HStem: -49.0664 122.425<131.026 236.215 352.824 414.973> 623.642 122.426<172.812 236.211 352.824 439.972>
VStem: 29.7148 116.609<466.181 595.995> 454.859 116.609<111.633 258.218>
LayerCount: 2
Fore
SplineSet
236.211 860.921 m 0
 236.211 800.339 l 0
 236.211 746.067 l 0
 198.383 742.807 160.34 734.438 125.676 714.515 c 0
 69.5977 682.285 28.6055 613.265 29.7148 528.983 c 0
 30.8203 444.798 75.1133 379.477 129.32 348.501 c 0
 164.004 328.682 200.371 318.819 236.215 311.899 c 0
 236.215 73.3584 l 0
 168.621 82.4541 111.102 101.126 111.102 101.126 c 0
 56.4414 120.058 l 0
 20 3.94141 l 0
 75.875 -14.9893 l 0
 75.875 -14.9893 147.027 -39.6406 236.215 -49.0664 c 0
 236.215 -158.871 l 0
 236.215 -219.452 l 0
 352.824 -219.452 l 0
 352.824 -158.871 l 0
 352.824 -49.0664 l 0
 395.875 -44.291 439.062 -33.3701 477.938 -7.41602 c 0
 532.238 28.835 570.031 97.1963 571.469 183.163 c 0
 572.906 269.313 534.051 337.777 480.367 371.219 c 0
 439.332 396.78 395.305 407.775 352.824 415.394 c 0
 352.824 619.856 l 0
 430.5 608.033 499.801 584.517 499.801 584.517 c 0
 554.461 564.323 l 0
 593.332 677.913 l 0
 537.457 698.107 l 0
 537.457 698.107 452.855 730.628 352.824 743.544 c 0
 352.824 800.339 l 0
 352.824 860.921 l 0
 236.211 860.921 l 0
232.57 623.642 m 0
 233.723 623.818 235.043 623.501 236.211 623.642 c 0
 236.211 436.849 l 0
 215.77 441.833 197.676 447.387 185.195 454.519 c 0
 158.621 469.704 146.992 480.638 146.324 531.508 c 0
 145.652 582.282 158.551 594.578 182.766 608.496 c 0
 194.875 615.455 212.461 620.631 232.57 623.642 c 0
352.824 290.442 m 0
 380.355 284.197 404.414 277.203 419.633 267.725 c 0
 444.668 252.129 455.773 240.346 454.859 185.688 c 0
 453.941 130.845 439.719 111.469 414.773 94.8145 c 0
 399.547 84.6494 377.797 77.7578 352.824 73.3584 c 0
 352.824 290.442 l 0
EndSplineSet
Validated: 524841
EndChar

StartChar: glyph 63
Encoding: 35 35 63
Width: 820
VWidth: -70
Flags: HW
LayerCount: 2
Fore
SplineSet
334.613 815.484 m 0
 320.039 756.165 l 0
 276.309 578.207 l 0
 145.121 579.467 l 0
 86.8164 579.467 l 0
 85.5977 458.304 l 0
 143.902 458.304 l 0
 245.938 457.04 l 0
 208.281 303.061 l 0
 79.5234 304.321 l 0
 21.2188 304.321 l 0
 20 183.158 l 0
 78.3047 183.158 l 0
 179.125 181.895 l 0
 141.469 30.4404 l 0
 126.891 -28.8799 l 0
 239.859 -57.9082 l 0
 254.434 0.149414 l 0
 299.379 181.895 l 0
 425.707 180.634 l 0
 389.266 30.4414 l 0
 374.691 -28.8779 l 0
 487.656 -57.9062 l 0
 502.234 0.150391 l 0
 545.961 180.634 l 0
 674.719 179.374 l 0
 733.023 179.374 l 0
 734.242 300.537 l 0
 675.938 300.537 l 0
 576.332 301.798 l 0
 613.988 455.775 l 0
 740.316 454.516 l 0
 798.621 454.516 l 0
 799.84 575.679 l 0
 741.535 575.679 l 0
 644.359 575.679 l 0
 680.801 725.871 l 0
 695.375 785.189 l 0
 582.41 815.48 l 0
 567.836 756.162 l 0
 524.105 576.94 l 0
 396.562 578.205 l 0
 433.004 725.873 l 0
 447.582 785.191 l 0
 334.613 815.484 l 0
366.195 457.043 m 0
 493.738 455.778 l 0
 456.082 301.801 l 0
 328.539 303.061 l 0
 366.195 457.043 l 0
EndSplineSet
Validated: 524809
EndChar

StartChar: glyph 64
Encoding: 64 64 64
Width: 1037
VWidth: -70
Flags: HW
HStem: -287.607 121.163<436.197 668.557> -3.63086 121.163<437.01 571.356> 414.131 121.163<439.828 566.256> 681.699 121.163<382.65 516.37 580.745 663.881>
VStem: 283.144 116.605<157.878 363.87> 603.815 171.277<151.87 371.462>
LayerCount: 2
Fore
SplineSet
515.147 802.862 m 0
 469.425 802.236 408.362 797.252 343.878 775.097 c 0
 214.905 730.784 72.3623 612.434 29.2725 369.957 c 0
 20.7764 322.144 6.70996 211.363 48.7061 87.2412 c 0
 90.7021 -36.8809 192.065 -171.4 392.464 -257.316 c 0
 402.835 -261.764 417.331 -267.039 444.694 -273.724 c 0
 472.062 -280.408 509.077 -286.569 550.374 -287.607 c 0
 632.964 -289.683 739.854 -269.249 821.253 -179.065 c 0
 861.339 -134.891 l 0
 776.312 -51.5918 l 0
 736.226 -95.7656 l 0
 682.983 -154.755 614.921 -168.006 552.808 -166.444 c 0
 521.749 -165.665 492.679 -161.538 471.425 -156.347 c 0
 450.171 -151.155 433.218 -143.709 436.198 -144.987 c 0
 261.749 -70.1963 191.339 32.7832 159.249 127.63 c 0
 127.159 222.477 137.011 312.221 143.46 348.501 c 0
 179.854 553.297 281.222 624.933 380.323 658.981 c 0
 429.874 676.006 479.343 681.192 516.37 681.699 c 0
 534.882 681.947 550.409 681.381 561.312 680.436 c 0
 572.214 679.486 575.28 678.654 580.745 677.912 c 0
 759.675 653.546 831.499 577.513 868.628 496.167 c 0
 905.761 414.82 902.495 321.299 896.565 281.606 c 0
 889.104 231.633 874.671 191.009 851.62 165.492 c 0
 836.042 148.245 810.011 136.782 775.093 130.152 c 0
 772.663 459.564 l 0
 772.663 520.146 l 0
 656.054 518.886 l 0
 656.054 469.664 l 0
 621.671 506.61 571.081 532.894 509.077 535.294 c 0
 421.022 538.704 352.659 487.017 320.8 426.752 c 0
 288.94 366.485 283.144 300.982 283.144 248.793 c 0
 283.144 193.469 294.929 132.829 330.519 82.1934 c 0
 366.104 31.5576 428.823 -3.63086 505.433 -3.63086 c 0
 569.972 -3.63086 624.065 23.0391 659.698 61.999 c 0
 715.573 2.67969 l 0
 813.222 -0.31543 889.046 29.501 936.647 82.1934 c 0
 984.249 134.886 1001.58 201.335 1010.75 262.676 c 0
 1019.17 319.071 1026.64 433.254 974.304 547.915 c 0
 921.964 662.574 804.206 770.631 595.319 799.077 c 0
 597.87 798.712 585.12 800.376 571.026 801.601 c 0
 556.933 802.826 538.011 803.174 515.147 802.862 c 0
505.429 414.131 m 0
 557.417 412.119 570.292 395.146 584.382 366.171 c 0
 598.476 337.194 603.815 290.964 603.815 248.794 c 0
 603.815 210.54 596.038 174.36 581.952 152.871 c 0
 567.862 131.385 551.729 117.532 505.429 117.532 c 0
 459.128 117.532 439.616 131.978 424.042 154.135 c 0
 408.472 176.291 399.749 212.106 399.749 248.794 c 0
 399.749 288.613 407.749 337.874 424.042 368.694 c 0
 440.335 399.516 455.112 416.077 505.429 414.131 c 0
EndSplineSet
Validated: 524837
EndChar

StartChar: glyph 65
Encoding: 33 33 65
Width: 160
VWidth: -70
Flags: W
LayerCount: 2
Fore
SplineSet
23.6406 818.009 m 0
 23.6406 757.428 l 0
 21.2109 294.229 l 0
 21.2109 233.647 l 0
 137.82 233.647 l 0
 137.82 294.229 l 0
 140.25 757.428 l 0
 140.25 818.009 l 0
 23.6406 818.009 l 0
20 111.223 m 0
 20 50.6406 l 0
 20 5.20508 l 0
 20 -55.377 l 0
 136.609 -55.377 l 0
 136.609 5.20508 l 0
 136.609 50.6406 l 0
 136.609 111.223 l 0
 20 111.223 l 0
EndSplineSet
Validated: 524809
EndChar

StartChar: glyph 66
Encoding: 61 61 66
Width: 762
VWidth: -70
Flags: HW
LayerCount: 2
Fore
SplineSet
21.2188 512.575 m 0
 20 391.412 l 0
 78.3047 391.412 l 0
 683.223 388.888 l 0
 741.527 388.888 l 0
 741.527 510.052 l 0
 683.223 510.052 l 0
 79.5195 512.575 l 0
 21.2188 512.575 l 0
21.2188 265.2 m 0
 20 144.038 l 0
 78.3047 144.038 l 0
 683.223 142.773 l 0
 741.527 142.773 l 0
 741.527 263.938 l 0
 683.223 263.938 l 0
 79.5195 265.197 l 0
 21.2188 265.2 l 0
EndSplineSet
Validated: 524809
EndChar

StartChar: glyph 67
Encoding: 45 45 67
Width: 356
VWidth: -70
Flags: HW
LayerCount: 2
Fore
SplineSet
21.2188 344.876 m 0
 20 223.713 l 0
 78.3047 223.713 l 0
 276.301 221.188 l 0
 334.605 221.188 l 0
 335.824 342.352 l 0
 277.52 342.352 l 0
 79.5234 344.876 l 0
 21.2188 344.876 l 0
EndSplineSet
Validated: 524809
EndChar

